<svg width="22" height="22" viewBox="0 0 22 22" fill="none" xmlns="http://www.w3.org/2000/svg">
<path d="M16 1H6C3.23858 1 1 3.23858 1 6V16C1 18.7614 3.23858 21 6 21H16C18.7614 21 21 18.7614 21 16V6C21 3.23858 18.7614 1 16 1Z" stroke="#59BE29" stroke-width="2" stroke-linecap="round" stroke-linejoin="round"/>
<path d="M14.9997 10.3698C15.1231 11.2021 14.981 12.052 14.5935 12.7988C14.206 13.5456 13.5929 14.1512 12.8413 14.5295C12.0898 14.9077 11.2382 15.0394 10.4075 14.9057C9.57683 14.7721 8.80947 14.3799 8.21455 13.785C7.61962 13.1901 7.22744 12.4227 7.09377 11.592C6.96011 10.7614 7.09177 9.90971 7.47003 9.15819C7.84829 8.40667 8.45389 7.79355 9.20069 7.40605C9.94749 7.01856 10.7975 6.8764 11.6297 6.99981C12.4786 7.1257 13.2646 7.52128 13.8714 8.12812C14.4782 8.73496 14.8738 9.52089 14.9997 10.3698Z" stroke="#59BE29" stroke-width="2" stroke-linecap="round" stroke-linejoin="round"/>
<path d="M16.5 5.5H16.51" stroke="#59BE29" stroke-width="2" stroke-linecap="round" stroke-linejoin="round"/>
</svg>
